<svg width="270" height="335" viewBox="0 0 270 335" fill="none" xmlns="http://www.w3.org/2000/svg">
<path opacity="0.1" d="M266.974 284.901L246.599 272.818V263.793C246.599 253.332 238.12 244.852 227.658 244.852H216.975C209.109 244.852 202.733 238.475 202.733 230.609C202.733 222.743 209.109 216.367 216.975 216.367H227.658C238.12 216.367 246.599 207.887 246.599 197.426V145.511C246.599 135.05 238.12 126.57 227.658 126.57H79.1736C71.3076 126.57 64.931 120.194 64.931 112.328C64.931 104.462 71.3076 98.0852 79.1736 98.0852H227.658C238.12 98.0852 246.599 89.6055 246.599 79.1442V27.2296C246.599 16.7683 238.12 8.28857 227.658 8.28857H18.941C8.47973 8.28857 0 16.7683 0 27.2296V79.1455C0 89.6068 8.47973 98.0865 18.941 98.0865H29.6242C37.4902 98.0865 43.8668 104.463 43.8668 112.329C43.8668 120.195 37.4902 126.572 29.6242 126.572H18.941C8.47973 126.572 0 135.051 0 145.513V197.427C0 207.889 8.48107 216.368 18.941 216.368H167.426C175.292 216.368 181.668 222.745 181.668 230.611C181.668 238.477 175.292 244.853 167.426 244.853H18.941C8.47973 244.853 0 253.333 0 263.794V315.709C0 326.17 8.47973 334.65 18.941 334.65H227.657C238.118 334.65 246.598 326.17 246.598 315.709V306.684L266.972 294.601C270.656 292.416 270.656 287.086 266.974 284.901Z" fill="black"/>
<path d="M266.974 276.613L246.599 264.53V255.504C246.599 245.043 238.12 236.563 227.658 236.563H216.975C209.109 236.563 202.733 230.187 202.733 222.321C202.733 214.455 209.109 208.078 216.975 208.078H227.658C238.12 208.078 246.599 199.599 246.599 189.137V137.223C246.599 126.761 238.12 118.282 227.658 118.282H79.1736C71.3076 118.282 64.931 111.905 64.931 104.039C64.931 96.1732 71.3076 89.7967 79.1736 89.7967H227.658C238.12 89.7967 246.599 81.3169 246.599 70.8556V18.941C246.599 8.47973 238.12 0 227.658 0H18.941C8.47973 0 0 8.47973 0 18.941V70.8556C0 81.3169 8.47973 89.7967 18.941 89.7967H29.6242C37.4902 89.7967 43.8668 96.1732 43.8668 104.039C43.8668 111.905 37.4902 118.282 29.6242 118.282H18.941C8.47973 118.282 0 126.761 0 137.223V189.137C0 199.599 8.48107 208.078 18.941 208.078H167.426C175.292 208.078 181.668 214.455 181.668 222.321C181.668 230.187 175.292 236.563 167.426 236.563H18.941C8.47973 236.563 0 245.043 0 255.504V307.419C0 317.88 8.47973 326.36 18.941 326.36H227.657C238.118 326.36 246.598 317.88 246.598 307.419V298.394L266.972 286.311C270.656 284.127 270.656 278.796 266.974 276.613Z" fill="#7A5AF9"/>
<path d="M43.2878 8.28711H227.657C233.531 8.28711 238.31 13.0658 238.31 18.9396V70.8555C238.31 76.728 233.531 81.5067 227.657 81.5067H144.137" stroke="#6544E5" stroke-width="3" stroke-miterlimit="10" stroke-linecap="round" stroke-linejoin="round"/>
<path d="M27.1694 8.28711H34.0767" stroke="#6544E5" stroke-width="3" stroke-miterlimit="10" stroke-linecap="round" stroke-linejoin="round"/>
<path d="M8.28854 163.179V137.223C8.28854 131.349 13.0672 126.57 18.941 126.57H29.6242C42.0484 126.57 52.1553 116.462 52.1553 104.041C52.1553 91.6164 42.0484 81.5082 29.6242 81.5082H18.9424C13.0686 81.5082 8.28988 76.7294 8.28988 70.857V18.941C8.28988 13.0673 13.0686 8.28857 18.9424 8.28857" stroke="#6544E5" stroke-width="3" stroke-miterlimit="10" stroke-linecap="round" stroke-linejoin="round"/>
<path d="M8.28854 180.341V172.512" stroke="#6544E5" stroke-width="3" stroke-miterlimit="10" stroke-linecap="round" stroke-linejoin="round"/>
<path d="M167.426 199.79H18.9424C13.0686 199.79 8.28989 195.011 8.28989 189.139" stroke="#6544E5" stroke-width="3" stroke-miterlimit="10" stroke-linecap="round" stroke-linejoin="round"/>
<path d="M18.9424 318.072C13.0686 318.072 8.28989 313.293 8.28989 307.42V255.505C8.28989 249.631 13.0686 244.852 18.9424 244.852H128.02" stroke="#6544E5" stroke-width="3" stroke-miterlimit="10" stroke-linecap="round" stroke-linejoin="round"/>
<path d="M37.2429 318.071H26.3645" stroke="#6544E5" stroke-width="3" stroke-miterlimit="10" stroke-linecap="round" stroke-linejoin="round"/>
<path d="M238.31 305.827V307.42C238.31 313.293 233.531 318.072 227.657 318.072H45.5916" stroke="#6544E5" stroke-width="3" stroke-miterlimit="10" stroke-linecap="round" stroke-linejoin="round"/>
<path d="M101.31 126.57H227.657C233.531 126.57 238.31 131.349 238.31 137.223V189.139C238.31 195.011 233.531 199.79 227.657 199.79H216.974C204.551 199.79 194.443 209.898 194.443 222.322C194.443 234.745 204.551 244.852 216.974 244.852H227.657C233.531 244.852 238.31 249.631 238.31 255.504V269.252L258.901 281.462L238.31 293.674V298.001" stroke="#6544E5" stroke-width="3" stroke-miterlimit="10" stroke-linecap="round" stroke-linejoin="round"/>
<path d="M79.1722 126.57H90.2579" stroke="#6544E5" stroke-width="3" stroke-miterlimit="10" stroke-linecap="round" stroke-linejoin="round"/>
<path d="M134.868 82.4172H115.126" stroke="#6544E5" stroke-width="3" stroke-miterlimit="10" stroke-linecap="round" stroke-linejoin="round"/>
<path d="M103.911 82.4172H98.4475" stroke="#6544E5" stroke-width="3" stroke-miterlimit="10" stroke-linecap="round" stroke-linejoin="round"/>
<path d="M137.63 244.852H151.965" stroke="#6544E5" stroke-width="3" stroke-miterlimit="10" stroke-linecap="round" stroke-linejoin="round"/>
<path d="M160.916 244.852H166.241" stroke="#6544E5" stroke-width="3" stroke-miterlimit="10" stroke-linecap="round" stroke-linejoin="round"/>
</svg>
